<svg xmlns="http://www.w3.org/2000/svg" xmlns:xlink="http://www.w3.org/1999/xlink" viewBox="0 0 1841.49 2086.45"><defs><style>.cls-1{fill:#f6f6f9;}.cls-2{fill:url(#linear-gradient);}.cls-3{fill:url(#linear-gradient-2);}.cls-4{fill:url(#linear-gradient-3);}.cls-5{fill:url(#linear-gradient-4);}.cls-6{fill:url(#linear-gradient-5);}.cls-7{fill:url(#linear-gradient-6);}.cls-8{fill:url(#linear-gradient-8);}.cls-9{fill:url(#linear-gradient-9);}.cls-10{fill:url(#linear-gradient-10);}.cls-11{fill:url(#linear-gradient-11);}.cls-12{fill:url(#linear-gradient-12);}.cls-13{fill:url(#linear-gradient-13);}.cls-14{fill:url(#linear-gradient-14);}.cls-15{fill:url(#linear-gradient-15);}.cls-16{fill:url(#linear-gradient-16);}.cls-17{fill:url(#linear-gradient-17);}.cls-18{fill:url(#linear-gradient-19);}.cls-19{fill:url(#linear-gradient-20);}.cls-20{fill:url(#linear-gradient-21);}.cls-21{fill:url(#linear-gradient-22);}.cls-22{fill:#edd91a;}</style><linearGradient id="linear-gradient" y1="1634.3" x2="867.42" y2="1634.3" gradientUnits="userSpaceOnUse"><stop offset="0" stop-color="#e7372b"/><stop offset="1" stop-color="#b71918"/></linearGradient><linearGradient id="linear-gradient-2" x1="798.17" y1="1316.12" x2="904.08" y2="1316.12" xlink:href="#linear-gradient"/><linearGradient id="linear-gradient-3" x1="742.84" y1="1201.24" x2="959.41" y2="1201.24" xlink:href="#linear-gradient"/><linearGradient id="linear-gradient-4" x1="725.19" y1="1103.97" x2="977.06" y2="1103.97" gradientTransform="translate(1702.25 2207.95) rotate(-180)" xlink:href="#linear-gradient"/><linearGradient id="linear-gradient-5" x1="781.72" y1="1036.33" x2="818.62" y2="1036.33" xlink:href="#linear-gradient"/><linearGradient id="linear-gradient-6" x1="883.62" y1="1036.33" x2="920.53" y2="1036.33" xlink:href="#linear-gradient"/><linearGradient id="linear-gradient-8" x1="742.84" y1="1123.48" x2="959.41" y2="1123.48" xlink:href="#linear-gradient"/><linearGradient id="linear-gradient-9" x1="822.03" y1="1228.65" x2="959.41" y2="1228.65" xlink:href="#linear-gradient"/><linearGradient id="linear-gradient-10" x1="798.17" y1="1287.61" x2="904.08" y2="1287.61" xlink:href="#linear-gradient"/><linearGradient id="linear-gradient-11" x1="781.72" y1="1083.23" x2="818.62" y2="1083.23" xlink:href="#linear-gradient"/><linearGradient id="linear-gradient-12" x1="883.62" y1="1083.23" x2="920.53" y2="1083.23" xlink:href="#linear-gradient"/><linearGradient id="linear-gradient-13" x1="804.88" y1="1323.42" x2="904.08" y2="1323.42" xlink:href="#linear-gradient"/><linearGradient id="linear-gradient-14" x1="834.83" y1="277.61" x2="1841.49" y2="277.61" xlink:href="#linear-gradient"/><linearGradient id="linear-gradient-15" x1="798.17" y1="472.04" x2="904.08" y2="472.04" xlink:href="#linear-gradient"/><linearGradient id="linear-gradient-16" x1="742.84" y1="586.92" x2="959.41" y2="586.92" xlink:href="#linear-gradient"/><linearGradient id="linear-gradient-17" x1="725.19" y1="684.19" x2="977.06" y2="684.19" gradientTransform="translate(1702.25 1368.37) rotate(-180)" xlink:href="#linear-gradient"/><linearGradient id="linear-gradient-19" x1="742.84" y1="664.68" x2="959.41" y2="664.68" xlink:href="#linear-gradient"/><linearGradient id="linear-gradient-20" x1="822.03" y1="559.51" x2="959.41" y2="559.51" xlink:href="#linear-gradient"/><linearGradient id="linear-gradient-21" x1="798.17" y1="500.55" x2="904.08" y2="500.55" xlink:href="#linear-gradient"/><linearGradient id="linear-gradient-22" x1="804.88" y1="464.74" x2="904.08" y2="464.74" xlink:href="#linear-gradient"/></defs><title>Asset 4bg-404</title><g id="Layer_2" data-name="Layer 2"><g id="Слой_1" data-name="Слой 1"><circle class="cls-1" cx="850.63" cy="873.84" r="675"/><path class="cls-2" d="M867.42,1182.16v405.18a127,127,0,0,1-127,127H127a94.42,94.42,0,0,0-94.42,94.42v261.36a16.3,16.3,0,0,1-16.3,16.3h0A16.29,16.29,0,0,1,0,2070.15V1808.79a127,127,0,0,1,127-127h613.4a94.42,94.42,0,0,0,94.42-94.42v-405.2Z"/><path class="cls-3" d="M904.08,1269.61v64.94A28.07,28.07,0,0,1,876,1362.62H826.23a28,28,0,0,1-21.35-9.86h0a27.94,27.94,0,0,1-6.71-18.2v-64.94Z"/><path class="cls-4" d="M959.41,1118.25V1248a36.27,36.27,0,0,1-36.28,36.26h-144A36.27,36.27,0,0,1,742.84,1248V1118.25Z"/><rect class="cls-5" x="725.19" y="1089.69" width="251.88" height="28.56" rx="4.76" transform="translate(1702.25 2207.95) rotate(180)"/><path class="cls-6" d="M818.62,1089.69h-36.9v-88.27A18.45,18.45,0,0,1,800.17,983h0a18.45,18.45,0,0,1,18.45,18.45Z"/><path class="cls-7" d="M902.08,983h0a18.45,18.45,0,0,1,18.45,18.45v88.27a0,0,0,0,1,0,0H883.62a0,0,0,0,1,0,0v-88.27A18.45,18.45,0,0,1,902.08,983Z"/><path class="cls-4" d="M959.41,1118.25V1248a36.27,36.27,0,0,1-36.28,36.26h-144A36.27,36.27,0,0,1,742.84,1248c155.51-10.81,169.8-129.71,169.8-129.71Z"/><rect class="cls-8" x="742.84" y="1118.25" width="216.57" height="10.46"/><path class="cls-9" d="M959.41,1173.07V1248a36.27,36.27,0,0,1-36.28,36.26H822C924.13,1284.22,959.41,1173.07,959.41,1173.07Z"/><rect class="cls-10" x="798.17" y="1284.22" width="105.91" height="6.78"/><rect class="cls-11" x="781.72" y="1076.77" width="36.91" height="12.92"/><rect class="cls-12" x="883.62" y="1076.77" width="36.91" height="12.92"/><path class="cls-13" d="M904.08,1284.22v50.33A28.07,28.07,0,0,1,876,1362.62H826.23a28,28,0,0,1-21.35-9.86h0c77.58,9.52,89.43-68.53,89.43-68.53Z"/><path class="cls-14" d="M1841.49,16.29h0a16.29,16.29,0,0,1-16.29,16.29H961.85A94.43,94.43,0,0,0,867.42,127V555.21H834.83V127a127,127,0,0,1,127-127H1825.2A16.29,16.29,0,0,1,1841.49,16.29Z"/><path class="cls-15" d="M904.08,518.54V453.61A28.07,28.07,0,0,0,876,425.54H826.23a28,28,0,0,0-21.35,9.86h0a27.92,27.92,0,0,0-6.71,18.2v64.93Z"/><path class="cls-16" d="M959.41,669.91V540.2a36.27,36.27,0,0,0-36.28-36.27h-144a36.27,36.27,0,0,0-36.27,36.27V669.91Z"/><rect class="cls-17" x="725.19" y="669.91" width="251.88" height="28.56" rx="4.76" transform="translate(1702.25 1368.37) rotate(180)"/><path class="cls-16" d="M959.41,669.91V540.2a36.27,36.27,0,0,0-36.28-36.27h-144a36.27,36.27,0,0,0-36.27,36.27C898.35,551,912.64,669.91,912.64,669.91Z"/><rect class="cls-18" x="742.84" y="659.45" width="216.57" height="10.46"/><path class="cls-19" d="M959.41,615.09V540.2a36.27,36.27,0,0,0-36.28-36.27H822C924.13,503.93,959.41,615.09,959.41,615.09Z"/><rect class="cls-20" x="798.17" y="497.16" width="105.91" height="6.78"/><path class="cls-21" d="M904.08,503.93V453.61A28.07,28.07,0,0,0,876,425.54H826.23a28,28,0,0,0-21.35,9.86h0c77.58-9.52,89.43,68.52,89.43,68.52Z"/><path class="cls-22" d="M567.06,811.72H500a9.23,9.23,0,0,1,0-18.46h67a9.23,9.23,0,1,1,0,18.46Z"/><path class="cls-22" d="M652.17,726.61a9.23,9.23,0,0,1-9.23-9.23V650.32a9.23,9.23,0,1,1,18.46,0v67.06A9.23,9.23,0,0,1,652.17,726.61Z"/><path class="cls-22" d="M590.64,750.19a9.24,9.24,0,0,1-6.53-2.71l-46.06-46.06a9.23,9.23,0,0,1,13.05-13.06l46.07,46.07a9.24,9.24,0,0,1-6.53,15.76Z"/><path class="cls-22" d="M1135.18,1019.4h67.06a9.23,9.23,0,0,1,0,18.46h-67.06a9.23,9.23,0,0,1,0-18.46Z"/><path class="cls-22" d="M1050.08,1104.5a9.24,9.24,0,0,1,9.23,9.24v67a9.24,9.24,0,0,1-18.47,0v-67A9.24,9.24,0,0,1,1050.08,1104.5Z"/><path class="cls-22" d="M1111.61,1080.93a9.23,9.23,0,0,1,6.53,2.7l46.06,46.07a9.23,9.23,0,0,1-13,13l-46.07-46.06a9.23,9.23,0,0,1,6.53-15.76Z"/></g></g></svg>