<svg xmlns="http://www.w3.org/2000/svg" viewBox="0 0 1602.26 1395.72"><defs><style>.cls-1{fill:#ededed;}.cls-2{fill:#f3a301;}.cls-3{fill:#fff;}.cls-4{fill:#4fcbbf;}.cls-5{fill:#262626;}.cls-6{fill:#ffcb59;}.cls-7{fill:#ec3529;}.cls-8{fill:#ffa895;}.cls-9{fill:#512466;}.cls-10{fill:#fc8b83;}</style></defs><title>Asset 1image-hero</title><g id="Layer_2" data-name="Layer 2"><g id="_Layer_" data-name="&lt;Layer&gt;"><path class="cls-1" d="M415.93,1391.76a752,752,0,0,1-184.79-183.33A744.47,744.47,0,0,1,94.27,777C94.27,363.91,429.2,29,842.33,29S1590.4,363.91,1590.4,777a748.68,748.68,0,0,1-27.26,200.76Z"/><path class="cls-2" d="M1311.74,464.68c-17.84-17.94-37.53-35.68-61.23-45.41-11-4.52-22.92-6.94-34.83-5.85-11.66,1.07-22.38,5.88-31.87,12.58-8.55,6-16.1,13.35-24.25,19.9-7.68,6.17-16.16,11.94-26.06,13.62-16.83,2.87-31.87-6.16-45.35-16-15.09-11-29.3-23.9-46.7-31.17a59.33,59.33,0,0,0-28.11-4.67c-12.24,1.08-23.54,6.59-33.63,13.31-20.4,13.6-36.69,33.58-60.65,41.33-10.5,3.39-22.25,3.32-31.73-2.84-9.15-5.93-15.47-15-22.48-23.18s-14.71-15.2-24.69-19.33a62.3,62.3,0,0,0-27.48-4.27c-18.67,1.1-37.52,10.33-48.59,25.62a54.92,54.92,0,0,0-6.72,12.4c-2.51,6.54,7.61,10.58,10.13,4,6-15.74,21.06-26.62,37.62-30a54.92,54.92,0,0,1,24.94.33c8.94,2.39,16,6.93,22.38,13.71,7.59,8.05,13.88,17.25,22.15,24.67a45.89,45.89,0,0,0,32.06,12c25.52-.59,45.73-18.9,64.31-34.17,16.46-13.54,35.62-26.94,58-21.66,16.26,3.82,30.47,15.78,44,26.15,14,10.71,29.17,22.18,47.13,24.7a50.28,50.28,0,0,0,28.13-4.35c9.4-4.39,17.46-11,25.27-17.76s15.35-13.68,24.37-18.4a51.66,51.66,0,0,1,31-5.48c23.69,3.13,44.38,19.17,61.57,34.72q6.48,5.86,12.65,12.08c2.07,2.09,5.1,3,7.64,1C1312.85,470.7,1313.83,466.78,1311.74,464.68Z"/><path class="cls-3" d="M1463.31,841.55H1121.86V609.06h341.45Zm-330.55-10.89h319.66V620H1132.76Z"/><rect class="cls-4" x="1435.05" y="812.05" width="45.64" height="45.64"/><rect class="cls-4" x="1435.05" y="591.68" width="45.64" height="45.64"/><rect class="cls-4" x="1104.49" y="587.93" width="45.64" height="45.64"/><rect class="cls-3" x="1036.94" y="515.7" width="45.64" height="45.64"/><rect class="cls-3" y="766.95" width="873.82" height="443.63"/><rect class="cls-1" y="766.95" width="345.65" height="443.63"/><rect class="cls-5" x="0.01" y="733.77" width="873.82" height="75.56"/><path class="cls-3" d="M61.62,782.63q-6.48-4.47-12.66-9.37l11.36-12.57c1.43-1.58.82-4.32-.77-5.52A4,4,0,0,0,54,756l-11.13,12.3q-6.55-5.6-12.66-11.68c-1.5-1.51-3.69-2.14-5.53-.72-1.52,1.17-2.23,4-.72,5.53,4.39,4.41,9,8.63,13.66,12.68Q32,780.3,26.37,786.52c-1.43,1.58-.81,4.32.78,5.52a4,4,0,0,0,5.52-.77l11-12.17q6.41,5.14,13.19,9.83a4,4,0,0,0,5.52-.78A4,4,0,0,0,61.62,782.63Z"/><path class="cls-3" d="M115.39,765.91c-2.49-8.72-11.56-13-20.32-12.73a28.52,28.52,0,0,0-13.38,3.69,16.06,16.06,0,0,0-7.6,10.76A30.45,30.45,0,0,0,73.81,781a16.21,16.21,0,0,0,7.86,10.35c7,4,17.16,5.43,24.58,1.77,9.7-4.79,10.8-15.61,9.87-25.24A3.64,3.64,0,0,0,115.39,765.91Zm-10.53,18.77c-4.22,3.48-11,3-15.86,1.33-2.64-.88-5.19-2.13-6.61-4.47-1.53-2.51-1.34-5.9-1.08-8.79s.6-5.84,2.64-7.82,5.11-3,7.9-3.47c6.18-1.14,14.92.15,16.14,7.36a4.45,4.45,0,0,0,.42,1.23C108.84,775.11,108.85,781.39,104.86,784.68Z"/><path class="cls-3" d="M169,756.56l-30.06-1.85a4.66,4.66,0,0,0-4.35,2.2,3.83,3.83,0,0,0-2.28,3.25q0,8,0,16l0,8c0,3.09-.34,6.56,2.89,8.27,2.43,1.29,5.68.69,8.35.64l8.21-.13,16.41-.27a4.34,4.34,0,0,0,3.75-3.77l1-27.58C172.9,759.12,171.5,756.71,169,756.56Zm-5.74,27.65-11.21.18-7.26.12-3.79.06c-.09-1,0-2.09,0-3.07,0-2.26,0-4.52,0-6.78,0-3.75,0-7.49,0-11.24l22.93,1.41Z"/><circle class="cls-4" cx="279.93" cy="326.43" r="240.92" transform="translate(-148.83 293.55) rotate(-45)"/><path class="cls-2" d="M1568.84,981.76c-47.26,170.06-153.08,315.73-294.39,414H421.63A751.92,751.92,0,0,1,236.84,1212.4a533.67,533.67,0,0,1,103.7-40.58c63.13-17.3,127.78-21.25,192.72-13.94,42.47,4.79,85.16,12.37,128,9.82a233.69,233.69,0,0,0,86-21.81c47.83-22.49,87.36-59.25,123.29-97.3,37-39.18,71.15-81,109.5-118.89,36.5-36.06,77.71-69,126.39-86.85,32.66-12,67.22-15.78,101.85-15.43a607.33,607.33,0,0,1,115.12,12.14c70.91,14.42,139.76,42.88,195.31,90A344.85,344.85,0,0,1,1568.84,981.76Z"/><path class="cls-2" d="M1567.92,540.21q-10.62-33.3-24.48-65.36c-100-232.08-321-410.11-570.54-453.66C878.45,4.7,781.57-10.93,688.15,10.26,437.76,67.05,349.39,131.62,308.48,170.06c-27.27,25.63-83.78,70.72-77.61,136.05,1.48,15.84,29.18,26.12,38.41,16.42,78.14-82,148-158.54,251.12-208.31C609.66,71.15,707.28,45.15,806.25,39c69.16-4.28,139,1.22,206.42,17.3,280.56,66.89,509.37,313.43,555.2,598.16q4,24.71,6.11,49.59,1.39,16.39,2,32.81c.48,2,1,4,1.42,6.07q10,44.17,15.87,89.18a3,3,0,0,0,6-.11C1607.83,733.66,1597.91,634.14,1567.92,540.21Z"/><path class="cls-6" d="M341.89,352.69A12.18,12.18,0,0,1,325,356l-69.55-46.72A12.17,12.17,0,0,1,269,289.07l69.55,46.72A12.19,12.19,0,0,1,341.89,352.69Z"/><path class="cls-5" d="M426.4,317.15l10.51,7.35L351.7,451.32l-10.78-7a34.43,34.43,0,0,1-13.62-17l-25.22-67.62a34.56,34.56,0,0,1,31.32-46.61L405.53,311A34.57,34.57,0,0,1,426.4,317.15Z"/><path class="cls-7" d="M1373.87,1047.21a32.21,32.21,0,0,1,44.63-9.1l54.32,35.94a32.2,32.2,0,1,1-35.53,53.72L1383,1091.83A32.2,32.2,0,0,1,1373.87,1047.21Z"/><path class="cls-5" d="M1435,1024.78,1403.89,1003l-18-12.61-17.81-12.49-63.54-44.6-44.28-31.08-10.67-7.49L1078.86,774.92l-642-450.41-85.2,126.8L519.49,559.2l20.39,13.09L616,621.23,685.62,666l650.76,418.41,40.86,26.28a34.55,34.55,0,0,0,47.43-9.77l19.16-28.54A34.54,34.54,0,0,0,1435,1024.78Z"/><path class="cls-5" d="M1262.07,1339.09c-10.46,27-19.81,46.54-23.36,53.67-1,1.94-1.48,3-1.48,3H673s281.5-330.22,291.87-354.93S962,875.6,962,875.6l122.23-144.19L1189.55,912s96.1,150.71,105.54,190.65C1313.83,1182,1285.3,1279,1262.07,1339.09Z"/><path class="cls-7" d="M1318.88,753.72A214.77,214.77,0,0,1,1254.12,858a205.31,205.31,0,0,1-18.87,14.79c-9.33-4.59-19.94-9.87-30.88-15.36-38-19-80.08-40.51-87.51-43.17-48-17.17-96.34-41.16-95.9-85.5.13-13.08,4.49-27.94,14.36-44.89,15.06-25.87,39.29-40.66,67-49.75-.48,0,0-9,.39-10.13,53.39-2.46,125.76,64.39,166.29,95.22C1282.73,729.66,1300.51,741.13,1318.88,753.72Z"/><path class="cls-7" d="M843.54,719.3s-39.27,56.79,5.25,104.64c42.78,46,69.76,35,69.76,35L962,912h227.54l-95.4-282.41Z"/><path class="cls-5" d="M1120.52,600.4c1.11,14.82,5.39,27.76,17.81,37.48,12.82,10,45.42,39.22,56.5,68.62,11.71,31.08,9.48,63.06-15.61,88.08-21.15,21.11-49.42,20.86-85.48,17.54-94-8.68-97.87-69.38-106.65-103.33-9.22-35.65-47.08-71-44.42-107.17q3.48-47.26,4.64-94.65c.46-18.94-17.53-32.75-13.82-49.81,4.42-20.38,4.17-44.64,22.57-52.51,38.2-16.33,110.4,4.48,138.1,33s35.5,49.54,43.35,90S1120.52,600.4,1120.52,600.4Z"/><path class="cls-8" d="M967.11,507.42q-5.36.94-10.7,2.14c-16,3.59-24.25,7.39-39.24,13.82-3.68-8.89-6.25-13.17-6.88-22.76-.72-11.27,1.65-35,10.41-35.28,4.47-.16,4.95,1.68,8.85-1.43,2.52-2,4-6.17,5.75-8.87a65.77,65.77,0,0,1,14.38-15.48,67.78,67.78,0,0,1,24.56-12.11C963.47,452,963.52,480.53,967.11,507.42Z"/><path class="cls-9" d="M956.78,468.33a3.41,3.41,0,0,0-1.43-1.57,3.15,3.15,0,0,0-2-.41,3.25,3.25,0,0,0-2.16,1.27l-3.85,5.95a3.47,3.47,0,0,0-.62,2.42,3.28,3.28,0,0,0,3.69,2.78l.81-.22a3.21,3.21,0,0,0,1.34-1.05l2.89-3.21a3.1,3.1,0,0,0,.65-1.88c.27-.53.52-1.07.74-1.62A3.27,3.27,0,0,0,956.78,468.33Z"/><path class="cls-9" d="M968.27,458.06c-3.37-4.95-8.67-9.46-14.94-9.6a3.36,3.36,0,0,0-3.63,2.87,3.3,3.3,0,0,0,2.87,3.62,9.62,9.62,0,0,1,5.86,2.07,20.11,20.11,0,0,1,4.9,5.38A28.7,28.7,0,0,1,967.88,477a3.29,3.29,0,0,0,3.69,2.78,3.34,3.34,0,0,0,2.78-3.69A34.87,34.87,0,0,0,968.27,458.06Z"/><path class="cls-9" d="M917.18,488.73c.16,0,0,0-.15,0A.47.47,0,0,0,917.18,488.73Z"/><path class="cls-10" d="M926.43,491.64a3.32,3.32,0,0,0-3.69-2.78,16.66,16.66,0,0,1-1.71.22l-.66,0-.43,0a14.11,14.11,0,0,1-1.72-.17l-.84-.15a20.62,20.62,0,0,1-3.49-1.34c-.44-.27-.68-.43-.91-.59a15.66,15.66,0,0,1-1.44-1.14,3.28,3.28,0,0,0-4.57.65,3.33,3.33,0,0,0,.64,4.57,19.42,19.42,0,0,0,16,4.4A3.32,3.32,0,0,0,926.43,491.64Z"/><path class="cls-8" d="M763.24,941.62c-18.72,11.94-39.09,21.62-61.19,25.11-21.33,3.37-43.34.61-62.23-10.2-15.61-8.91-27.9-22.6-37.38-37.7-10-15.91-17.3-33.3-23.62-51-7.86-21.92-14.75-44.23-22-66.37q-23-70.28-46-140.55c-.71-2.22-1.43-4.43-2.15-6.65-.24-.72-.46-1.41-.7-2.13-1.31-4-22.79-13.51-27.06-16.76a169.45,169.45,0,0,1-26.22-24.78c-15.77-18.41-27.17-39.28-32.47-62.93-1.09-4.79-1.15-50.07-2.24-50.77L598.46,611.69c1.72,3,3.37,6.38,5,10.11.87,2.05,1.76,4.21,2.61,6.52.22.52.42,1,.61,1.59,13.19,36.47,62.12,129.71,77.48,159.5,2.48,4.83,4.78.22,8.55-3.63a170.62,170.62,0,0,0,1.94,31,243.27,243.27,0,0,0,15.15,53.85c7.56,18.87,17.47,37.15,31.27,52.23A112.63,112.63,0,0,0,763.24,941.62Z"/><path class="cls-10" d="M523.65,563.6c-5.1,10.09-13.79,17.67-26.43,17.28-9.74-.31-19.13-5.45-26.39-11.64-8.17-7-14.27-16.1-19.05-25.67A103.4,103.4,0,0,1,441.87,511Z"/><path class="cls-8" d="M602.52,618.5a47.18,47.18,0,0,1-6,2.7c-17.67,6.54-39,3.18-57.11-.35-29.64-5.76-54.16-24.16-41.41-45.73,10.83-18.31,17.52-36.24,16.75-49.72-.6-10.32.69-22.36,7.49-30.67,4.47-5.45,11.35-7.87,17.87-4.47s10,10.11,11.18,17.11c1.26,7.69.37,15.6,3.16,23,2.15,5.73,5.68,10.7,9.63,15.32,8.17,9.63,18.17,17.82,24.93,28.63,7,11.31,9.26,24.58,12,37.5Q601.71,615.21,602.52,618.5Z"/><path class="cls-5" d="M1038.63,506c-8.63-7.38-19.07-11.24-30-12.92a35.72,35.72,0,0,0,3.9-21.07c-1.17-9.76-16.27-7.63-15.1,2.14.94,7.73-1.39,13.51-5.64,17.84-4,.09-8.11.35-12.07.74-5.19.55-7,5-6.12,9-10,2.9-21,4-28.66,5a133.54,133.54,0,0,0-51.34,17.37c-15.54,9.24-29.26,22-38.7,37.5-6.75,11.07-17.06,29.64-4.21,38.81A21.77,21.77,0,0,0,854,602.3c1,.46,2,.89,3,1.31,9.57,4,20.2,6.45,30,9.58,12.61,4,25.27,8,38.09,11.44,21.53,5.8,43.71,10.14,66.11,8,18.63-1.83,37.7-8.35,49.27-23.89,10.89-14.64,16.86-34.51,17.45-52.64C1058.61,537.45,1053.21,518.45,1038.63,506Z"/><path class="cls-7" d="M928.13,788.35c-31.47,40.4-69.38,78-107.63,109.93-17.82,14.91-36.08,29.62-55.58,42.28-.57.37-1.11.71-1.68,1.06a112.63,112.63,0,0,1-22.16-18.8c-13.8-15.08-23.71-33.36-31.27-52.23a243.27,243.27,0,0,1-15.15-53.85,170.62,170.62,0,0,1-1.94-31C741.84,732.32,796.25,645.29,854,602.3c38.68-28.79,96-25.3,133.38,25.36,1.18,1.57,2.25,3.16,3.23,4.77C1023.7,686,958.61,749.23,928.13,788.35Z"/><path class="cls-10" d="M1398,930.51c-6,10.24-19.19,32-29.94,47.35l-63.54-44.6-44.28-31.08c3.47-5.86,7.37-12.44,8.35-14.64-.44,1-14.23-5.41-33.34-14.78A205.31,205.31,0,0,0,1254.12,858a214.77,214.77,0,0,0,64.76-104.25c43.65,29.92,90.72,66.31,95.55,111.35.2,1.75.31,3.49.4,5.21C1415.72,891.31,1408.64,912.25,1398,930.51Z"/><path class="cls-3" d="M857.07,603.61A303.31,303.31,0,0,0,827,631.26c-34.3,35.43-64.75,74.41-96.15,112.39s-64,75.53-101.41,107.91c-3.2,2.75-7.17-2.44-4-5.18a668.07,668.07,0,0,0,59.51-59.12c33.26-37,63.65-76.42,95.86-114.32,15.93-18.74,32.21-37.3,49.77-54.52,6.45-6.32,13.12-12.37,20.13-18A21.77,21.77,0,0,0,854,602.3C855,602.76,856.05,603.19,857.07,603.61Z"/><path class="cls-3" d="M1318.16,915.26q-20.52-8.44-40.64-17.76a1002.82,1002.82,0,0,1-106-57.12c-2.53-1.57-5-3.13-7.58-4.72-.55-2.9-1.09-5.8-1.59-8.72q3.72,2.38,7.47,4.73,5.65,3.55,11.33,7a996.53,996.53,0,0,0,139.4,70.5C1324.46,910.77,1322,916.85,1318.16,915.26Z"/><path class="cls-9" d="M1194.15,942.28c-4.07-10.72-7.89-21.55-11.37-32.49A633.14,633.14,0,0,1,1164,835.66c-.55-2.9-1.09-5.8-1.59-8.72q-3.13-17.79-5.25-35.76c-.5-4.18,6-5.1,6.47-.92q2,16.85,4.84,33.56c.45,2.62.91,5.23,1.41,7.85.53,2.92,1.09,5.82,1.7,8.71a622.46,622.46,0,0,0,28.66,99.37C1201.67,943.67,1195.65,946.22,1194.15,942.28Z"/><path class="cls-3" d="M613.93,628.37c-7.43-24.41-15.24-49.62-31.51-69.8-4-5-8.61-9.56-12.48-14.72a42,42,0,0,1-7.81-18c-2.25-12.1-2-24.94-8.88-35.66-6.35-9.89-21.41-15.66-31.13-6.92-3.12,2.81.86,8,4,5.19,3.71-3.35,8.73-3.55,13.27-1.78,4.83,1.89,8.18,5.89,10.32,10.52,5.08,11,4,23.56,7.22,35.06,3.29,11.89,11.8,20,19.44,29.24s13.41,19.65,18.12,30.59c5.41,12.59,9.43,25.72,13.41,38.81C609.12,634.92,615.14,632.36,613.93,628.37Z"/><path class="cls-9" d="M610.83,628.45c-1.59-.07-3.18-.11-4.75-.13a149.11,149.11,0,0,0-44.62,6.23A151.15,151.15,0,0,0,510.81,661c-.71-2.22-1.43-4.43-2.15-6.65A147.21,147.21,0,0,1,523.82,644a159.07,159.07,0,0,1,79.65-22.18c2.7,0,5.4,0,8.13.15C615.8,622.15,615,628.64,610.83,628.45Z"/><path class="cls-9" d="M956.76,751.3q-38,44.66-77.38,88.16-11.08,12.27-22.28,24.43c-2.84,3.09,2.4,7,5.23,3.93q39.69-43.17,78.11-87.51,10.81-12.49,21.54-25.08C964.71,752,959.48,748.1,956.76,751.3Z"/><path class="cls-3" d="M34.07,874.44l122.28.6,34.62.16c2.94,0,5.68-1.62,6.05-4.77.31-2.67-1.82-6-4.78-6L70,863.79l-34.63-.17c-2.93,0-5.67,1.62-6,4.78C29,871.07,31.11,874.43,34.07,874.44Z"/><path class="cls-3" d="M234.49,876.54l39.35-.85,19.4-.42,9.7-.21c2.37,0,4.85-.28,7.26-.25a5.07,5.07,0,0,0,4.95.51,5.65,5.65,0,0,0,3.36-3.48c.63-2.41.26-4.72-1.79-6.35-2.85-2.26-7-1.4-10.44-1.32l-10.24.22-21,.45-42,.91c-2.94.06-5,3.48-4.63,6.15C228.79,875.1,231.54,876.6,234.49,876.54Z"/><path class="cls-3" d="M34.91,928.86q55.17.48,110.35-.24Q200,927.92,254.74,926q31.14-1.1,62.29-2.57c2.94-.14,5-3.43,4.63-6.15-.44-3.14-3.2-4.78-6.15-4.64q-54.42,2.58-108.89,4Q152.31,918,98,918.2q-30.9.1-61.8-.17c-2.94,0-5.68,1.63-6.05,4.78C29.82,925.49,32,928.83,34.91,928.86Z"/><path class="cls-3" d="M190.12,968.1q21.75-1.46,43.42-3.8c7-.75,5.46-11.54-1.51-10.79a1067.93,1067.93,0,0,1-151.2,5.55q-21.51-.75-43-2.36c-7-.52-8.29,10.3-1.27,10.82A1086.75,1086.75,0,0,0,190.12,968.1Z"/><path class="cls-3" d="M313.64,954l-52.85-1.39c-2.94-.08-5.69,1.67-6.05,4.78-.32,2.72,1.82,6,4.78,6l52.85,1.39c2.94.08,5.68-1.67,6.05-4.77C318.74,957.32,316.6,954.07,313.64,954Z"/><path class="cls-3" d="M323.33,1056.71c-.45-3.22-3.2-4.68-6.15-4.64L99.79,1055l-60.87.82c-3,0-5,3.49-4.64,6.15.45,3.22,3.2,4.68,6.15,4.64l217.4-2.93,60.87-.82C321.64,1062.82,323.71,1059.36,323.33,1056.71Z"/><path class="cls-4" d="M322.26,722.1c-1.49-9.74-9.82-15.18-17.85-19.5a54.29,54.29,0,0,0-11.13-4.51,31.61,31.61,0,0,0-26,2.08c-13.73,7.74-17.9,24.4-11.61,38.5a33,33,0,0,0,37.93,19C309,754,324.92,739.41,322.26,722.1Zm-35.64,3.34a6,6,0,0,0-4.28-3.59c.48.12.34.16.17-.11a7.15,7.15,0,0,1,1.29-.58c.57-.18,3.2-.55,3.94.38S287.16,724.77,286.62,725.44Zm20.61,11.48a25.68,25.68,0,0,1-2.65,3A28.42,28.42,0,0,0,309,729.08a29.74,29.74,0,0,0,.42-9.92,10,10,0,0,1,1.73,3C312.8,727.21,310.27,732.94,307.23,736.92Z"/><path class="cls-3" d="M799.34,602l-186-125a15.55,15.55,0,1,1,17.34-25.81l186,125A15.55,15.55,0,0,1,799.34,602Z"/></g></g></svg>