<svg xmlns="http://www.w3.org/2000/svg" xmlns:xlink="http://www.w3.org/1999/xlink" viewBox="0 0 879.01 736.76"><defs><style>.cls-1{fill:#bdbdbd;}.cls-2{fill:url(#linear-gradient);}.cls-3{fill:#ffd3bc;}.cls-4{fill:url(#Super_Soft_Black_Vignette);}.cls-5{fill:#192b59;}.cls-6{fill:url(#linear-gradient-2);}.cls-7{fill:url(#linear-gradient-3);}.cls-8{fill:url(#linear-gradient-4);}.cls-9{fill:#845521;}.cls-10{fill:url(#linear-gradient-5);}.cls-11{fill:#f2dad4;}.cls-12{fill:url(#linear-gradient-6);}.cls-13{fill:url(#Super_Soft_Black_Vignette-2);}</style><linearGradient id="linear-gradient" x1="439.5" y1="355.06" x2="439.5" y2="599.38" gradientUnits="userSpaceOnUse"><stop offset="0" stop-color="#e5e5e5"/><stop offset="0.48" stop-color="#f4f4f4"/><stop offset="1" stop-color="#fff"/></linearGradient><radialGradient id="Super_Soft_Black_Vignette" cx="3744.7" cy="427.97" r="19.92" gradientTransform="matrix(-1, 0, 0, 1, 4254.35, 0)" gradientUnits="userSpaceOnUse"><stop offset="0.57" stop-color="#130c0e"/><stop offset="0.8" stop-color="#130c0e"/><stop offset="1" stop-color="#130c0e"/></radialGradient><linearGradient id="linear-gradient-2" x1="451.87" y1="37.68" x2="408.85" y2="32.88" gradientUnits="userSpaceOnUse"><stop offset="0" stop-color="#f2bfad"/><stop offset="1" stop-color="#f2dad4"/></linearGradient><linearGradient id="linear-gradient-3" x1="364.29" y1="137.23" x2="542.9" y2="137.23" gradientUnits="userSpaceOnUse"><stop offset="0" stop-color="#cc1515"/><stop offset="0" stop-color="#ec3529"/><stop offset="0.98" stop-color="#840817"/></linearGradient><linearGradient id="linear-gradient-4" x1="547.95" y1="154.11" x2="550.14" y2="191.22" gradientUnits="userSpaceOnUse"><stop offset="0" stop-color="#f2bfad"/><stop offset="0.7" stop-color="#f2dad4"/></linearGradient><linearGradient id="linear-gradient-5" x1="457.45" y1="53.12" x2="471.68" y2="82.83" xlink:href="#linear-gradient-2"/><linearGradient id="linear-gradient-6" x1="524.09" y1="118.91" x2="548.85" y2="164.47" gradientUnits="userSpaceOnUse"><stop offset="0" stop-color="#f6dbdb"/><stop offset="1" stop-color="#eb9a99"/></linearGradient><radialGradient id="Super_Soft_Black_Vignette-2" cx="418.15" cy="430.38" r="19.92" gradientTransform="matrix(1, 0, 0, 1, 0, 0)" xlink:href="#Super_Soft_Black_Vignette"/></defs><title>Asset 1bg-ab-circle</title><g id="Layer_2" data-name="Layer 2"><g id="Layer_2-2" data-name="Layer 2"><path class="cls-1" d="M723.46,355.85a6.11,6.11,0,1,0-12.07,1.89c.87,5.69,2,23.51-4.16,30.68a8.24,8.24,0,0,1-5,2.85l.56-33.94a8.83,8.83,0,1,0-17.65.07l1.6,64.42a8.31,8.31,0,0,1-5.17-2.88c-6.15-7.17-5-25-4.16-30.68a6.1,6.1,0,1,0-12.06-1.89c-.44,2.8-4,27.76,6.93,40.5a20.7,20.7,0,0,0,14.76,7.26l.7,28H701.1l1-58.57a20.67,20.67,0,0,0,14.45-7.24C727.43,383.61,723.9,358.66,723.46,355.85Z"/><path class="cls-1" d="M154.41,410.46a3.89,3.89,0,1,0-7.69,1.2c.55,3.63,1.26,15-2.66,19.56A5.17,5.17,0,0,1,140.9,433l.36-21.63a5.63,5.63,0,1,0-11.25,0l1,41.07a5.3,5.3,0,0,1-3.3-1.84c-3.92-4.57-3.21-15.93-2.65-19.56a3.89,3.89,0,1,0-7.69-1.2c-.28,1.79-2.53,17.69,4.42,25.82a13.17,13.17,0,0,0,9.41,4.62l.44,17.87h8.5l.61-37.34a13.12,13.12,0,0,0,9.22-4.61C156.94,428.15,154.69,412.24,154.41,410.46Z"/><ellipse class="cls-2" cx="439.5" cy="581.17" rx="439.5" ry="155.59"/><path class="cls-3" d="M509.66,392.57s-.25,15,0,16.47-5.86,10.28-8.36,9.89-7.49-1.22-8.22-2.05-.4-2.8-.14-4.6,2.12-18.1,2.12-18.93S506.88,390.29,509.66,392.57Z"/><path class="cls-4" d="M500,408.18c-3.13,1.69-4.88,6.83-5.33,6.9s-1.27-.07-1.27-.57.13-2.23-.44-2.23-1.21,2.8-1.34,6.86-1.57,13.76,0,15c1,.78,10,5.53,10.29,6.16s-.19,5.09.58,5.79,2.54,2.41,3.93,2.47,9.47.89,13.28,0,8.64-2.73,8.76-3.24-.95-11.3-2.16-12.64-9.9-13.27-10.6-14.35a12.33,12.33,0,0,1-1.21-5.21c0-1.53-1.38-4.85-4-5.65S502.32,406.91,500,408.18Z"/><path class="cls-3" d="M418.4,401.23s0,8.72-.25,10.22,5.86,10.27,8.36,9.89,7.5-1.23,8.22-2.06.4-2.8.14-4.59S433,402.84,433,402,421.18,399,418.4,401.23Z"/><path class="cls-5" d="M426.45,208.82c-3.54,12.86-10.23,56.93-10.23,78.35s-2.14,76-2.14,84.32-.9,28.89,1.25,30,7.15,4.29,13.94,3.22,8.58-5.36,8.75-9.3,1.79-32.17,3.4-43.07,7.33-31.93,11.08-45.45,12.51-40.72,14.84-40.62,16.79,59.69,18,63.06,3.5,51.36,3.65,55.38,0,7.91,2.54,9.55,10.28,5.66,14.31,6,6.71-6.11,7.45-8.05,2.07-66.11,1.59-83.71.92-50.43.11-61.14-3.44-33.64-5.1-38.46S426.45,208.82,426.45,208.82Z"/><path class="cls-6" d="M401.46,59.29c3.38-3.75,19.14-21.51,22.26-22.14s10.74-2,12.44-3.75S445,9.12,442.19,5s-13.8-2.94-17.13,4-3.15,10.63-8.63,15.45-29.37,24.34-31.6,26.32S387,62.38,390.51,64,401.46,59.29,401.46,59.29Z"/><path class="cls-7" d="M445,64.7c-8.05,1.69-21.43,3.12-25.84,4.54s-21.82,7.54-21.69,4.94,8-14,6.62-15.19-10-2.6-11.42-4.42-3.38-6.1-5.33-5.58-24.53,21.55-23,29.6c3.64,19,57,32.82,58.23,41.11s-4.14,87.67-1.22,90.6,33.86,14.12,49.44,15.1,42.93-4.46,44.43-8.56-7.61-83-6.55-83,1.35,24.84,13.22,31.26c7.84,4.24,18.62-.13,20.69-2.47s-7.37-35.35-11.64-46.48S522.62,82,513,73.84s-23.27-6.77-28-8.69-20.43-.55-24.39-1S445,64.7,445,64.7Z"/><path class="cls-8" d="M545.57,147.71s-13.88,4.19-15,5.64-3,7.22,0,9.62,6.3,4.21,9.87,1.43,6.82-6.51,8.89-7,8.23.41,10.82-.6,7.5-20.65,5.52-21.84S545.57,147.71,545.57,147.71Z"/><path class="cls-9" d="M445.07,62.05c-4.48-.93-13.13-9.39-13.92-18-.77-8.38-6.93-31.91,14.5-40.73,20.11-8.28,40.81.24,43.78,10.45,2.78,9.53-20.83,10-29.48,16.17s-9.24,10.34-11.4,9.36S445.07,62.05,445.07,62.05Z"/><path class="cls-10" d="M444.71,45.28c-.29,3.84-1.25,22.39.35,25.12,1.48,2.51,4.1,9.79,14.38,9.47s16.94-10.6,17.51-11.8S476.3,52,476.3,49.52,462.49,41.17,457,41.33,445,41.68,444.71,45.28Z"/><path class="cls-11" d="M445.65,45.34c1.16,0-.21,7,1.89,9.34S458.78,69,468.46,67.86c8.36-1,7.16-8.22,8.36-14.16,1.1-5.38,4.58-5.85,5.8-19.91.47-5.45,3-14-1.68-15.55s-22.48-5.77-26.89,0-4.83,19.64-7.14,17.86-7.14-10.5-10-5.78S439.46,45.52,445.65,45.34Z"/><path class="cls-12" d="M520.32,117.28l-28.15,35.58a2.79,2.79,0,0,0,2.24,4.53l52-.88a2.8,2.8,0,0,0,2.19-1.12l26.59-35.53a2.54,2.54,0,0,0-2.06-4.06l-50.67.42A2.74,2.74,0,0,0,520.32,117.28Z"/><path class="cls-3" d="M564.82,131.61c-2.74.28-6.71,1.82-6.71,3.25s3.19,1.82,4.07,2,2,.41,1.71.85-1,2.64-2.76,2.25-9.47-.49-11-.49-3.25,1-3.36,2.15-.44,1.32-1.32,1.37-2.48.88-2.48,2.32,3.53,2.72,3.53,3.22,6.94,4.75,8.3,5.53,3.9,2.8,5.34,2.8,3.83-1.36,4-3.33,3-3.4,3-4.37-.9-1.68-.79-2.29,2.58-1.47,2.58-3-1-3.62-1.11-4.26-.72-2-.15-2.22,2.58-2,2.22-3.76S566.09,131.48,564.82,131.61Z"/><path class="cls-13" d="M427.83,410.59c3.13,1.69,4.88,6.83,5.33,6.89s1.27-.06,1.27-.57-.13-2.22.44-2.22,1.21,2.79,1.34,6.86,1.57,13.76,0,15c-1,.77-10,5.53-10.29,6.16s.19,5.08-.57,5.78-2.54,2.41-3.94,2.48-9.47.89-13.28,0-8.64-2.73-8.76-3.24.95-11.31,2.16-12.64,9.91-13.28,10.6-14.36a12.3,12.3,0,0,0,1.21-5.21c0-1.52,1.38-4.85,4-5.65S425.48,409.32,427.83,410.59Z"/></g></g></svg>